{
  "asset": {
    "generator": "glTF-Transform v4.4.0",
    "version": "2.0"
  },
  "accessors": [
    {
      "type": "VEC3",
      "componentType": 5126,
      "count": 525,
      "max": [
        0.04563578963279724,
        0.12550382316112518,
        0.04563581943511963
      ],
      "min": [
        -0.04563578963279724,
        -2.3283064365386963e-10,
        -0.045635759830474854
      ],
      "bufferView": 0,
      "byteOffset": 0
    },
    {
      "type": "VEC3",
      "componentType": 5126,
      "count": 525,
      "bufferView": 0,
      "byteOffset": 12
    },
    {
      "type": "VEC2",
      "componentType": 5126,
      "count": 525,
      "bufferView": 0,
      "byteOffset": 24
    },
    {
      "type": "SCALAR",
      "componentType": 5125,
      "count": 1716,
      "bufferView": 1,
      "byteOffset": 0
    },
    {
      "type": "SCALAR",
      "componentType": 5125,
      "count": 9492,
      "bufferView": 1,
      "byteOffset": 6864
    },
    {
      "type": "SCALAR",
      "componentType": 5125,
      "count": 1986,
      "bufferView": 1,
      "byteOffset": 44832
    },
    {
      "type": "SCALAR",
      "componentType": 5125,
      "count": 2730,
      "bufferView": 1,
      "byteOffset": 52776
    },
    {
      "type": "SCALAR",
      "componentType": 5125,
      "count": 2550,
      "bufferView": 1,
      "byteOffset": 63696
    },
    {
      "type": "SCALAR",
      "componentType": 5125,
      "count": 2976,
      "bufferView": 1,
      "byteOffset": 73896
    },
    {
      "type": "SCALAR",
      "componentType": 5125,
      "count": 2976,
      "bufferView": 1,
      "byteOffset": 85800
    },
    {
      "type": "SCALAR",
      "componentType": 5125,
      "count": 1986,
      "bufferView": 1,
      "byteOffset": 97704
    },
    {
      "type": "SCALAR",
      "componentType": 5125,
      "count": 9492,
      "bufferView": 1,
      "byteOffset": 105648
    },
    {
      "type": "SCALAR",
      "componentType": 5125,
      "count": 1716,
      "bufferView": 1,
      "byteOffset": 143616
    },
    {
      "type": "SCALAR",
      "componentType": 5125,
      "count": 1716,
      "bufferView": 1,
      "byteOffset": 150480
    },
    {
      "type": "SCALAR",
      "componentType": 5125,
      "count": 1716,
      "bufferView": 1,
      "byteOffset": 157344
    },
    {
      "type": "SCALAR",
      "componentType": 5125,
      "count": 1716,
      "bufferView": 1,
      "byteOffset": 164208
    },
    {
      "type": "SCALAR",
      "componentType": 5125,
      "count": 1716,
      "bufferView": 1,
      "byteOffset": 171072
    },
    {
      "type": "SCALAR",
      "componentType": 5125,
      "count": 1716,
      "bufferView": 1,
      "byteOffset": 177936
    },
    {
      "type": "SCALAR",
      "componentType": 5125,
      "count": 1716,
      "bufferView": 1,
      "byteOffset": 184800
    },
    {
      "type": "SCALAR",
      "componentType": 5125,
      "count": 1716,
      "bufferView": 1,
      "byteOffset": 191664
    },
    {
      "type": "SCALAR",
      "componentType": 5125,
      "count": 9492,
      "bufferView": 1,
      "byteOffset": 198528
    },
    {
      "type": "SCALAR",
      "componentType": 5125,
      "count": 1986,
      "bufferView": 1,
      "byteOffset": 236496
    },
    {
      "type": "SCALAR",
      "componentType": 5125,
      "count": 2730,
      "bufferView": 1,
      "byteOffset": 244440
    },
    {
      "type": "SCALAR",
      "componentType": 5125,
      "count": 2550,
      "bufferView": 1,
      "byteOffset": 255360
    },
    {
      "type": "SCALAR",
      "componentType": 5125,
      "count": 2976,
      "bufferView": 1,
      "byteOffset": 265560
    },
    {
      "type": "SCALAR",
      "componentType": 5125,
      "count": 2976,
      "bufferView": 1,
      "byteOffset": 277464
    },
    {
      "type": "SCALAR",
      "componentType": 5125,
      "count": 1986,
      "bufferView": 1,
      "byteOffset": 289368
    },
    {
      "type": "SCALAR",
      "componentType": 5125,
      "count": 9492,
      "bufferView": 1,
      "byteOffset": 297312
    },
    {
      "type": "SCALAR",
      "componentType": 5125,
      "count": 1716,
      "bufferView": 1,
      "byteOffset": 335280
    },
    {
      "type": "SCALAR",
      "componentType": 5125,
      "count": 1716,
      "bufferView": 1,
      "byteOffset": 342144
    },
    {
      "type": "SCALAR",
      "componentType": 5125,
      "count": 1716,
      "bufferView": 1,
      "byteOffset": 349008
    },
    {
      "type": "SCALAR",
      "componentType": 5125,
      "count": 1716,
      "bufferView": 1,
      "byteOffset": 355872
    },
    {
      "type": "SCALAR",
      "componentType": 5125,
      "count": 1716,
      "bufferView": 1,
      "byteOffset": 362736
    },
    {
      "type": "SCALAR",
      "componentType": 5125,
      "count": 1716,
      "bufferView": 1,
      "byteOffset": 369600
    },
    {
      "type": "SCALAR",
      "componentType": 5125,
      "count": 1716,
      "bufferView": 1,
      "byteOffset": 376464
    },
    {
      "type": "VEC3",
      "componentType": 5126,
      "count": 2149,
      "max": [
        0.04792099818587303,
        0.16968443989753723,
        0.04792099818587303
      ],
      "min": [
        -0.04792099818587303,
        2.561136858147961e-9,
        -0.04792099818587303
      ],
      "bufferView": 2,
      "byteOffset": 0
    },
    {
      "type": "VEC3",
      "componentType": 5126,
      "count": 2149,
      "bufferView": 2,
      "byteOffset": 12
    },
    {
      "type": "VEC2",
      "componentType": 5126,
      "count": 2149,
      "bufferView": 2,
      "byteOffset": 24
    },
    {
      "type": "VEC3",
      "componentType": 5126,
      "count": 708,
      "max": [
        0.04648704081773758,
        0.13986247777938843,
        0.04648704081773758
      ],
      "min": [
        -0.04648704081773758,
        2.3283064365386963e-9,
        -0.04648704081773758
      ],
      "bufferView": 3,
      "byteOffset": 0
    },
    {
      "type": "VEC3",
      "componentType": 5126,
      "count": 708,
      "bufferView": 3,
      "byteOffset": 12
    },
    {
      "type": "VEC2",
      "componentType": 5126,
      "count": 708,
      "bufferView": 3,
      "byteOffset": 24
    },
    {
      "type": "VEC3",
      "componentType": 5126,
      "count": 867,
      "max": [
        0.04648704081773758,
        0.18119682371616364,
        0.04648705571889877
      ],
      "min": [
        -0.04648704081773758,
        4.190951585769653e-9,
        -0.046487025916576385
      ],
      "bufferView": 4,
      "byteOffset": 0
    },
    {
      "type": "VEC3",
      "componentType": 5126,
      "count": 867,
      "bufferView": 4,
      "byteOffset": 12
    },
    {
      "type": "VEC2",
      "componentType": 5126,
      "count": 867,
      "bufferView": 4,
      "byteOffset": 24
    },
    {
      "type": "VEC3",
      "componentType": 5126,
      "count": 820,
      "max": [
        0.04648704081773758,
        0.21822012960910797,
        0.04648704081773758
      ],
      "min": [
        -0.04648704081773758,
        0,
        -0.04648704081773758
      ],
      "bufferView": 5,
      "byteOffset": 0
    },
    {
      "type": "VEC3",
      "componentType": 5126,
      "count": 820,
      "bufferView": 5,
      "byteOffset": 12
    },
    {
      "type": "VEC2",
      "componentType": 5126,
      "count": 820,
      "bufferView": 5,
      "byteOffset": 24
    },
    {
      "type": "VEC3",
      "componentType": 5126,
      "count": 1013,
      "max": [
        0.04801502823829651,
        0.1540972739458084,
        0.04648704081773758
      ],
      "min": [
        -0.0464869886636734,
        0,
        -0.04648704081773758
      ],
      "bufferView": 6,
      "byteOffset": 0
    },
    {
      "type": "VEC3",
      "componentType": 5126,
      "count": 1013,
      "bufferView": 6,
      "byteOffset": 12
    },
    {
      "type": "VEC2",
      "componentType": 5126,
      "count": 1013,
      "bufferView": 6,
      "byteOffset": 24
    },
    {
      "type": "VEC3",
      "componentType": 5126,
      "count": 1013,
      "max": [
        0.04801502823829651,
        0.1540972739458084,
        0.04648704081773758
      ],
      "min": [
        -0.0464869886636734,
        0,
        -0.04648704081773758
      ],
      "bufferView": 7,
      "byteOffset": 0
    },
    {
      "type": "VEC3",
      "componentType": 5126,
      "count": 1013,
      "bufferView": 7,
      "byteOffset": 12
    },
    {
      "type": "VEC2",
      "componentType": 5126,
      "count": 1013,
      "bufferView": 7,
      "byteOffset": 24
    },
    {
      "type": "VEC3",
      "componentType": 5126,
      "count": 708,
      "max": [
        0.04648704081773758,
        0.13986247777938843,
        0.04648704081773758
      ],
      "min": [
        -0.04648704081773758,
        2.3283064365386963e-9,
        -0.04648704081773758
      ],
      "bufferView": 8,
      "byteOffset": 0
    },
    {
      "type": "VEC3",
      "componentType": 5126,
      "count": 708,
      "bufferView": 8,
      "byteOffset": 12
    },
    {
      "type": "VEC2",
      "componentType": 5126,
      "count": 708,
      "bufferView": 8,
      "byteOffset": 24
    },
    {
      "type": "VEC3",
      "componentType": 5126,
      "count": 2149,
      "max": [
        0.04792099818587303,
        0.16968443989753723,
        0.04792099818587303
      ],
      "min": [
        -0.04792099818587303,
        2.561136858147961e-9,
        -0.04792099818587303
      ],
      "bufferView": 9,
      "byteOffset": 0
    },
    {
      "type": "VEC3",
      "componentType": 5126,
      "count": 2149,
      "bufferView": 9,
      "byteOffset": 12
    },
    {
      "type": "VEC2",
      "componentType": 5126,
      "count": 2149,
      "bufferView": 9,
      "byteOffset": 24
    },
    {
      "type": "VEC3",
      "componentType": 5126,
      "count": 525,
      "max": [
        0.04563578963279724,
        0.12550382316112518,
        0.04563581943511963
      ],
      "min": [
        -0.04563578963279724,
        -2.3283064365386963e-10,
        -0.045635759830474854
      ],
      "bufferView": 10,
      "byteOffset": 0
    },
    {
      "type": "VEC3",
      "componentType": 5126,
      "count": 525,
      "bufferView": 10,
      "byteOffset": 12
    },
    {
      "type": "VEC2",
      "componentType": 5126,
      "count": 525,
      "bufferView": 10,
      "byteOffset": 24
    },
    {
      "type": "VEC3",
      "componentType": 5126,
      "count": 525,
      "max": [
        0.04563578963279724,
        0.12550382316112518,
        0.04563581943511963
      ],
      "min": [
        -0.04563578963279724,
        -2.3283064365386963e-10,
        -0.045635759830474854
      ],
      "bufferView": 11,
      "byteOffset": 0
    },
    {
      "type": "VEC3",
      "componentType": 5126,
      "count": 525,
      "bufferView": 11,
      "byteOffset": 12
    },
    {
      "type": "VEC2",
      "componentType": 5126,
      "count": 525,
      "bufferView": 11,
      "byteOffset": 24
    },
    {
      "type": "VEC3",
      "componentType": 5126,
      "count": 525,
      "max": [
        0.04563578963279724,
        0.12550382316112518,
        0.04563581943511963
      ],
      "min": [
        -0.04563578963279724,
        -2.3283064365386963e-10,
        -0.045635759830474854
      ],
      "bufferView": 12,
      "byteOffset": 0
    },
    {
      "type": "VEC3",
      "componentType": 5126,
      "count": 525,
      "bufferView": 12,
      "byteOffset": 12
    },
    {
      "type": "VEC2",
      "componentType": 5126,
      "count": 525,
      "bufferView": 12,
      "byteOffset": 24
    },
    {
      "type": "VEC3",
      "componentType": 5126,
      "count": 525,
      "max": [
        0.04563578963279724,
        0.12550382316112518,
        0.04563581943511963
      ],
      "min": [
        -0.04563578963279724,
        -2.3283064365386963e-10,
        -0.045635759830474854
      ],
      "bufferView": 13,
      "byteOffset": 0
    },
    {
      "type": "VEC3",
      "componentType": 5126,
      "count": 525,
      "bufferView": 13,
      "byteOffset": 12
    },
    {
      "type": "VEC2",
      "componentType": 5126,
      "count": 525,
      "bufferView": 13,
      "byteOffset": 24
    },
    {
      "type": "VEC3",
      "componentType": 5126,
      "count": 525,
      "max": [
        0.04563578963279724,
        0.12550382316112518,
        0.04563581943511963
      ],
      "min": [
        -0.04563578963279724,
        -2.3283064365386963e-10,
        -0.045635759830474854
      ],
      "bufferView": 14,
      "byteOffset": 0
    },
    {
      "type": "VEC3",
      "componentType": 5126,
      "count": 525,
      "bufferView": 14,
      "byteOffset": 12
    },
    {
      "type": "VEC2",
      "componentType": 5126,
      "count": 525,
      "bufferView": 14,
      "byteOffset": 24
    },
    {
      "type": "VEC3",
      "componentType": 5126,
      "count": 525,
      "max": [
        0.04563578963279724,
        0.12550382316112518,
        0.04563581943511963
      ],
      "min": [
        -0.04563578963279724,
        -2.3283064365386963e-10,
        -0.045635759830474854
      ],
      "bufferView": 15,
      "byteOffset": 0
    },
    {
      "type": "VEC3",
      "componentType": 5126,
      "count": 525,
      "bufferView": 15,
      "byteOffset": 12
    },
    {
      "type": "VEC2",
      "componentType": 5126,
      "count": 525,
      "bufferView": 15,
      "byteOffset": 24
    },
    {
      "type": "VEC3",
      "componentType": 5126,
      "count": 525,
      "max": [
        0.04563578963279724,
        0.12550382316112518,
        0.04563581943511963
      ],
      "min": [
        -0.04563578963279724,
        -2.3283064365386963e-10,
        -0.045635759830474854
      ],
      "bufferView": 16,
      "byteOffset": 0
    },
    {
      "type": "VEC3",
      "componentType": 5126,
      "count": 525,
      "bufferView": 16,
      "byteOffset": 12
    },
    {
      "type": "VEC2",
      "componentType": 5126,
      "count": 525,
      "bufferView": 16,
      "byteOffset": 24
    },
    {
      "type": "VEC3",
      "componentType": 5126,
      "count": 525,
      "max": [
        0.04563578963279724,
        0.12550382316112518,
        0.04563581943511963
      ],
      "min": [
        -0.04563578963279724,
        -2.3283064365386963e-10,
        -0.045635759830474854
      ],
      "bufferView": 17,
      "byteOffset": 0
    },
    {
      "type": "VEC3",
      "componentType": 5126,
      "count": 525,
      "bufferView": 17,
      "byteOffset": 12
    },
    {
      "type": "VEC2",
      "componentType": 5126,
      "count": 525,
      "bufferView": 17,
      "byteOffset": 24
    },
    {
      "type": "VEC3",
      "componentType": 5126,
      "count": 2149,
      "max": [
        0.04792099818587303,
        0.16968443989753723,
        0.04792099818587303
      ],
      "min": [
        -0.04792099818587303,
        2.561136858147961e-9,
        -0.04792099818587303
      ],
      "bufferView": 18,
      "byteOffset": 0
    },
    {
      "type": "VEC3",
      "componentType": 5126,
      "count": 2149,
      "bufferView": 18,
      "byteOffset": 12
    },
    {
      "type": "VEC2",
      "componentType": 5126,
      "count": 2149,
      "bufferView": 18,
      "byteOffset": 24
    },
    {
      "type": "VEC3",
      "componentType": 5126,
      "count": 708,
      "max": [
        0.04648704081773758,
        0.13986247777938843,
        0.04648704081773758
      ],
      "min": [
        -0.04648704081773758,
        2.3283064365386963e-9,
        -0.04648704081773758
      ],
      "bufferView": 19,
      "byteOffset": 0
    },
    {
      "type": "VEC3",
      "componentType": 5126,
      "count": 708,
      "bufferView": 19,
      "byteOffset": 12
    },
    {
      "type": "VEC2",
      "componentType": 5126,
      "count": 708,
      "bufferView": 19,
      "byteOffset": 24
    },
    {
      "type": "VEC3",
      "componentType": 5126,
      "count": 867,
      "max": [
        0.04648704081773758,
        0.18119682371616364,
        0.04648705571889877
      ],
      "min": [
        -0.04648704081773758,
        4.190951585769653e-9,
        -0.046487025916576385
      ],
      "bufferView": 20,
      "byteOffset": 0
    },
    {
      "type": "VEC3",
      "componentType": 5126,
      "count": 867,
      "bufferView": 20,
      "byteOffset": 12
    },
    {
      "type": "VEC2",
      "componentType": 5126,
      "count": 867,
      "bufferView": 20,
      "byteOffset": 24
    },
    {
      "type": "VEC3",
      "componentType": 5126,
      "count": 820,
      "max": [
        0.04648704081773758,
        0.21822012960910797,
        0.04648704081773758
      ],
      "min": [
        -0.04648704081773758,
        0,
        -0.04648704081773758
      ],
      "bufferView": 21,
      "byteOffset": 0
    },
    {
      "type": "VEC3",
      "componentType": 5126,
      "count": 820,
      "bufferView": 21,
      "byteOffset": 12
    },
    {
      "type": "VEC2",
      "componentType": 5126,
      "count": 820,
      "bufferView": 21,
      "byteOffset": 24
    },
    {
      "type": "VEC3",
      "componentType": 5126,
      "count": 1013,
      "max": [
        0.04801502823829651,
        0.1540972739458084,
        0.04648704081773758
      ],
      "min": [
        -0.0464869886636734,
        0,
        -0.04648704081773758
      ],
      "bufferView": 22,
      "byteOffset": 0
    },
    {
      "type": "VEC3",
      "componentType": 5126,
      "count": 1013,
      "bufferView": 22,
      "byteOffset": 12
    },
    {
      "type": "VEC2",
      "componentType": 5126,
      "count": 1013,
      "bufferView": 22,
      "byteOffset": 24
    },
    {
      "type": "VEC3",
      "componentType": 5126,
      "count": 1013,
      "max": [
        0.04801502823829651,
        0.1540972739458084,
        0.04648704081773758
      ],
      "min": [
        -0.0464869886636734,
        0,
        -0.04648704081773758
      ],
      "bufferView": 23,
      "byteOffset": 0
    },
    {
      "type": "VEC3",
      "componentType": 5126,
      "count": 1013,
      "bufferView": 23,
      "byteOffset": 12
    },
    {
      "type": "VEC2",
      "componentType": 5126,
      "count": 1013,
      "bufferView": 23,
      "byteOffset": 24
    },
    {
      "type": "VEC3",
      "componentType": 5126,
      "count": 708,
      "max": [
        0.04648704081773758,
        0.13986247777938843,
        0.04648704081773758
      ],
      "min": [
        -0.04648704081773758,
        2.3283064365386963e-9,
        -0.04648704081773758
      ],
      "bufferView": 24,
      "byteOffset": 0
    },
    {
      "type": "VEC3",
      "componentType": 5126,
      "count": 708,
      "bufferView": 24,
      "byteOffset": 12
    },
    {
      "type": "VEC2",
      "componentType": 5126,
      "count": 708,
      "bufferView": 24,
      "byteOffset": 24
    },
    {
      "type": "VEC3",
      "componentType": 5126,
      "count": 2149,
      "max": [
        0.04792099818587303,
        0.16968443989753723,
        0.04792099818587303
      ],
      "min": [
        -0.04792099818587303,
        2.561136858147961e-9,
        -0.04792099818587303
      ],
      "bufferView": 25,
      "byteOffset": 0
    },
    {
      "type": "VEC3",
      "componentType": 5126,
      "count": 2149,
      "bufferView": 25,
      "byteOffset": 12
    },
    {
      "type": "VEC2",
      "componentType": 5126,
      "count": 2149,
      "bufferView": 25,
      "byteOffset": 24
    },
    {
      "type": "VEC3",
      "componentType": 5126,
      "count": 525,
      "max": [
        0.04563578963279724,
        0.12550382316112518,
        0.04563581943511963
      ],
      "min": [
        -0.04563578963279724,
        -2.3283064365386963e-10,
        -0.045635759830474854
      ],
      "bufferView": 26,
      "byteOffset": 0
    },
    {
      "type": "VEC3",
      "componentType": 5126,
      "count": 525,
      "bufferView": 26,
      "byteOffset": 12
    },
    {
      "type": "VEC2",
      "componentType": 5126,
      "count": 525,
      "bufferView": 26,
      "byteOffset": 24
    },
    {
      "type": "VEC3",
      "componentType": 5126,
      "count": 525,
      "max": [
        0.04563578963279724,
        0.12550382316112518,
        0.04563581943511963
      ],
      "min": [
        -0.04563578963279724,
        -2.3283064365386963e-10,
        -0.045635759830474854
      ],
      "bufferView": 27,
      "byteOffset": 0
    },
    {
      "type": "VEC3",
      "componentType": 5126,
      "count": 525,
      "bufferView": 27,
      "byteOffset": 12
    },
    {
      "type": "VEC2",
      "componentType": 5126,
      "count": 525,
      "bufferView": 27,
      "byteOffset": 24
    },
    {
      "type": "VEC3",
      "componentType": 5126,
      "count": 525,
      "max": [
        0.04563578963279724,
        0.12550382316112518,
        0.04563581943511963
      ],
      "min": [
        -0.04563578963279724,
        -2.3283064365386963e-10,
        -0.045635759830474854
      ],
      "bufferView": 28,
      "byteOffset": 0
    },
    {
      "type": "VEC3",
      "componentType": 5126,
      "count": 525,
      "bufferView": 28,
      "byteOffset": 12
    },
    {
      "type": "VEC2",
      "componentType": 5126,
      "count": 525,
      "bufferView": 28,
      "byteOffset": 24
    },
    {
      "type": "VEC3",
      "componentType": 5126,
      "count": 525,
      "max": [
        0.04563578963279724,
        0.12550382316112518,
        0.04563581943511963
      ],
      "min": [
        -0.04563578963279724,
        -2.3283064365386963e-10,
        -0.045635759830474854
      ],
      "bufferView": 29,
      "byteOffset": 0
    },
    {
      "type": "VEC3",
      "componentType": 5126,
      "count": 525,
      "bufferView": 29,
      "byteOffset": 12
    },
    {
      "type": "VEC2",
      "componentType": 5126,
      "count": 525,
      "bufferView": 29,
      "byteOffset": 24
    },
    {
      "type": "VEC3",
      "componentType": 5126,
      "count": 525,
      "max": [
        0.04563578963279724,
        0.12550382316112518,
        0.04563581943511963
      ],
      "min": [
        -0.04563578963279724,
        -2.3283064365386963e-10,
        -0.045635759830474854
      ],
      "bufferView": 30,
      "byteOffset": 0
    },
    {
      "type": "VEC3",
      "componentType": 5126,
      "count": 525,
      "bufferView": 30,
      "byteOffset": 12
    },
    {
      "type": "VEC2",
      "componentType": 5126,
      "count": 525,
      "bufferView": 30,
      "byteOffset": 24
    },
    {
      "type": "VEC3",
      "componentType": 5126,
      "count": 525,
      "max": [
        0.04563578963279724,
        0.12550382316112518,
        0.04563581943511963
      ],
      "min": [
        -0.04563578963279724,
        -2.3283064365386963e-10,
        -0.045635759830474854
      ],
      "bufferView": 31,
      "byteOffset": 0
    },
    {
      "type": "VEC3",
      "componentType": 5126,
      "count": 525,
      "bufferView": 31,
      "byteOffset": 12
    },
    {
      "type": "VEC2",
      "componentType": 5126,
      "count": 525,
      "bufferView": 31,
      "byteOffset": 24
    },
    {
      "type": "VEC3",
      "componentType": 5126,
      "count": 525,
      "max": [
        0.04563578963279724,
        0.12550382316112518,
        0.04563581943511963
      ],
      "min": [
        -0.04563578963279724,
        -2.3283064365386963e-10,
        -0.045635759830474854
      ],
      "bufferView": 32,
      "byteOffset": 0
    },
    {
      "type": "VEC3",
      "componentType": 5126,
      "count": 525,
      "bufferView": 32,
      "byteOffset": 12
    },
    {
      "type": "VEC2",
      "componentType": 5126,
      "count": 525,
      "bufferView": 32,
      "byteOffset": 24
    }
  ],
  "bufferViews": [
    {
      "buffer": 0,
      "byteOffset": 0,
      "byteLength": 16800,
      "byteStride": 32,
      "target": 34962
    },
    {
      "buffer": 0,
      "byteOffset": 16800,
      "byteLength": 383328,
      "target": 34963
    },
    {
      "buffer": 0,
      "byteOffset": 400128,
      "byteLength": 68768,
      "byteStride": 32,
      "target": 34962
    },
    {
      "buffer": 0,
      "byteOffset": 468896,
      "byteLength": 22656,
      "byteStride": 32,
      "target": 34962
    },
    {
      "buffer": 0,
      "byteOffset": 491552,
      "byteLength": 27744,
      "byteStride": 32,
      "target": 34962
    },
    {
      "buffer": 0,
      "byteOffset": 519296,
      "byteLength": 26240,
      "byteStride": 32,
      "target": 34962
    },
    {
      "buffer": 0,
      "byteOffset": 545536,
      "byteLength": 32416,
      "byteStride": 32,
      "target": 34962
    },
    {
      "buffer": 0,
      "byteOffset": 577952,
      "byteLength": 32416,
      "byteStride": 32,
      "target": 34962
    },
    {
      "buffer": 0,
      "byteOffset": 610368,
      "byteLength": 22656,
      "byteStride": 32,
      "target": 34962
    },
    {
      "buffer": 0,
      "byteOffset": 633024,
      "byteLength": 68768,
      "byteStride": 32,
      "target": 34962
    },
    {
      "buffer": 0,
      "byteOffset": 701792,
      "byteLength": 16800,
      "byteStride": 32,
      "target": 34962
    },
    {
      "buffer": 0,
      "byteOffset": 718592,
      "byteLength": 16800,
      "byteStride": 32,
      "target": 34962
    },
    {
      "buffer": 0,
      "byteOffset": 735392,
      "byteLength": 16800,
      "byteStride": 32,
      "target": 34962
    },
    {
      "buffer": 0,
      "byteOffset": 752192,
      "byteLength": 16800,
      "byteStride": 32,
      "target": 34962
    },
    {
      "buffer": 0,
      "byteOffset": 768992,
      "byteLength": 16800,
      "byteStride": 32,
      "target": 34962
    },
    {
      "buffer": 0,
      "byteOffset": 785792,
      "byteLength": 16800,
      "byteStride": 32,
      "target": 34962
    },
    {
      "buffer": 0,
      "byteOffset": 802592,
      "byteLength": 16800,
      "byteStride": 32,
      "target": 34962
    },
    {
      "buffer": 0,
      "byteOffset": 819392,
      "byteLength": 16800,
      "byteStride": 32,
      "target": 34962
    },
    {
      "buffer": 0,
      "byteOffset": 836192,
      "byteLength": 68768,
      "byteStride": 32,
      "target": 34962
    },
    {
      "buffer": 0,
      "byteOffset": 904960,
      "byteLength": 22656,
      "byteStride": 32,
      "target": 34962
    },
    {
      "buffer": 0,
      "byteOffset": 927616,
      "byteLength": 27744,
      "byteStride": 32,
      "target": 34962
    },
    {
      "buffer": 0,
      "byteOffset": 955360,
      "byteLength": 26240,
      "byteStride": 32,
      "target": 34962
    },
    {
      "buffer": 0,
      "byteOffset": 981600,
      "byteLength": 32416,
      "byteStride": 32,
      "target": 34962
    },
    {
      "buffer": 0,
      "byteOffset": 1014016,
      "byteLength": 32416,
      "byteStride": 32,
      "target": 34962
    },
    {
      "buffer": 0,
      "byteOffset": 1046432,
      "byteLength": 22656,
      "byteStride": 32,
      "target": 34962
    },
    {
      "buffer": 0,
      "byteOffset": 1069088,
      "byteLength": 68768,
      "byteStride": 32,
      "target": 34962
    },
    {
      "buffer": 0,
      "byteOffset": 1137856,
      "byteLength": 16800,
      "byteStride": 32,
      "target": 34962
    },
    {
      "buffer": 0,
      "byteOffset": 1154656,
      "byteLength": 16800,
      "byteStride": 32,
      "target": 34962
    },
    {
      "buffer": 0,
      "byteOffset": 1171456,
      "byteLength": 16800,
      "byteStride": 32,
      "target": 34962
    },
    {
      "buffer": 0,
      "byteOffset": 1188256,
      "byteLength": 16800,
      "byteStride": 32,
      "target": 34962
    },
    {
      "buffer": 0,
      "byteOffset": 1205056,
      "byteLength": 16800,
      "byteStride": 32,
      "target": 34962
    },
    {
      "buffer": 0,
      "byteOffset": 1221856,
      "byteLength": 16800,
      "byteStride": 32,
      "target": 34962
    },
    {
      "buffer": 0,
      "byteOffset": 1238656,
      "byteLength": 16800,
      "byteStride": 32,
      "target": 34962
    }
  ],
  "samplers": [
    {
      "magFilter": 9729,
      "minFilter": 9987,
      "wrapS": 10497,
      "wrapT": 10497
    }
  ],
  "textures": [
    {
      "source": 0,
      "sampler": 0
    },
    {
      "source": 1,
      "sampler": 0
    }
  ],
  "images": [
    {
      "mimeType": "image/png",
      "uri": "textures/Chess_Pieces_Dark_baseColor.png"
    },
    {
      "mimeType": "image/png",
      "uri": "textures/Chess_Pieces_Light_baseColor.png"
    }
  ],
  "buffers": [
    {
      "uri": "scene.bin",
      "byteLength": 1255456
    }
  ],
  "materials": [
    {
      "name": "Chess_Pieces_Dark",
      "doubleSided": true,
      "pbrMetallicRoughness": {
        "roughnessFactor": 0.7299069863831965,
        "baseColorTexture": {
          "index": 0
        }
      }
    },
    {
      "name": "Chess_Pieces_Light",
      "doubleSided": true,
      "pbrMetallicRoughness": {
        "roughnessFactor": 0.73,
        "baseColorTexture": {
          "index": 1
        }
      }
    }
  ],
  "meshes": [
    {
      "name": "Object_1",
      "primitives": [
        {
          "attributes": {
            "NORMAL": 1,
            "POSITION": 0,
            "TEXCOORD_0": 2
          },
          "mode": 4,
          "material": 0,
          "indices": 3
        }
      ]
    },
    {
      "name": "Object_2",
      "primitives": [
        {
          "attributes": {
            "NORMAL": 36,
            "POSITION": 35,
            "TEXCOORD_0": 37
          },
          "mode": 4,
          "material": 0,
          "indices": 4
        }
      ]
    },
    {
      "name": "Object_3",
      "primitives": [
        {
          "attributes": {
            "NORMAL": 39,
            "POSITION": 38,
            "TEXCOORD_0": 40
          },
          "mode": 4,
          "material": 0,
          "indices": 5
        }
      ]
    },
    {
      "name": "Object_4",
      "primitives": [
        {
          "attributes": {
            "NORMAL": 42,
            "POSITION": 41,
            "TEXCOORD_0": 43
          },
          "mode": 4,
          "material": 0,
          "indices": 6
        }
      ]
    },
    {
      "name": "Object_5",
      "primitives": [
        {
          "attributes": {
            "NORMAL": 45,
            "POSITION": 44,
            "TEXCOORD_0": 46
          },
          "mode": 4,
          "material": 0,
          "indices": 7
        }
      ]
    },
    {
      "name": "Object_6",
      "primitives": [
        {
          "attributes": {
            "NORMAL": 48,
            "POSITION": 47,
            "TEXCOORD_0": 49
          },
          "mode": 4,
          "material": 0,
          "indices": 8
        }
      ]
    },
    {
      "name": "Object_7",
      "primitives": [
        {
          "attributes": {
            "NORMAL": 51,
            "POSITION": 50,
            "TEXCOORD_0": 52
          },
          "mode": 4,
          "material": 0,
          "indices": 9
        }
      ]
    },
    {
      "name": "Object_8",
      "primitives": [
        {
          "attributes": {
            "NORMAL": 54,
            "POSITION": 53,
            "TEXCOORD_0": 55
          },
          "mode": 4,
          "material": 0,
          "indices": 10
        }
      ]
    },
    {
      "name": "Object_9",
      "primitives": [
        {
          "attributes": {
            "NORMAL": 57,
            "POSITION": 56,
            "TEXCOORD_0": 58
          },
          "mode": 4,
          "material": 0,
          "indices": 11
        }
      ]
    },
    {
      "name": "Object_10",
      "primitives": [
        {
          "attributes": {
            "NORMAL": 60,
            "POSITION": 59,
            "TEXCOORD_0": 61
          },
          "mode": 4,
          "material": 0,
          "indices": 12
        }
      ]
    },
    {
      "name": "Object_11",
      "primitives": [
        {
          "attributes": {
            "NORMAL": 63,
            "POSITION": 62,
            "TEXCOORD_0": 64
          },
          "mode": 4,
          "material": 0,
          "indices": 13
        }
      ]
    },
    {
      "name": "Object_12",
      "primitives": [
        {
          "attributes": {
            "NORMAL": 66,
            "POSITION": 65,
            "TEXCOORD_0": 67
          },
          "mode": 4,
          "material": 0,
          "indices": 14
        }
      ]
    },
    {
      "name": "Object_13",
      "primitives": [
        {
          "attributes": {
            "NORMAL": 69,
            "POSITION": 68,
            "TEXCOORD_0": 70
          },
          "mode": 4,
          "material": 0,
          "indices": 15
        }
      ]
    },
    {
      "name": "Object_14",
      "primitives": [
        {
          "attributes": {
            "NORMAL": 72,
            "POSITION": 71,
            "TEXCOORD_0": 73
          },
          "mode": 4,
          "material": 0,
          "indices": 16
        }
      ]
    },
    {
      "name": "Object_15",
      "primitives": [
        {
          "attributes": {
            "NORMAL": 75,
            "POSITION": 74,
            "TEXCOORD_0": 76
          },
          "mode": 4,
          "material": 0,
          "indices": 17
        }
      ]
    },
    {
      "name": "Object_16",
      "primitives": [
        {
          "attributes": {
            "NORMAL": 78,
            "POSITION": 77,
            "TEXCOORD_0": 79
          },
          "mode": 4,
          "material": 0,
          "indices": 18
        }
      ]
    },
    {
      "name": "Object_17",
      "primitives": [
        {
          "attributes": {
            "NORMAL": 81,
            "POSITION": 80,
            "TEXCOORD_0": 82
          },
          "mode": 4,
          "material": 1,
          "indices": 19
        }
      ]
    },
    {
      "name": "Object_18",
      "primitives": [
        {
          "attributes": {
            "NORMAL": 84,
            "POSITION": 83,
            "TEXCOORD_0": 85
          },
          "mode": 4,
          "material": 1,
          "indices": 20
        }
      ]
    },
    {
      "name": "Object_19",
      "primitives": [
        {
          "attributes": {
            "NORMAL": 87,
            "POSITION": 86,
            "TEXCOORD_0": 88
          },
          "mode": 4,
          "material": 1,
          "indices": 21
        }
      ]
    },
    {
      "name": "Object_20",
      "primitives": [
        {
          "attributes": {
            "NORMAL": 90,
            "POSITION": 89,
            "TEXCOORD_0": 91
          },
          "mode": 4,
          "material": 1,
          "indices": 22
        }
      ]
    },
    {
      "name": "Object_21",
      "primitives": [
        {
          "attributes": {
            "NORMAL": 93,
            "POSITION": 92,
            "TEXCOORD_0": 94
          },
          "mode": 4,
          "material": 1,
          "indices": 23
        }
      ]
    },
    {
      "name": "Object_22",
      "primitives": [
        {
          "attributes": {
            "NORMAL": 96,
            "POSITION": 95,
            "TEXCOORD_0": 97
          },
          "mode": 4,
          "material": 1,
          "indices": 24
        }
      ]
    },
    {
      "name": "Object_23",
      "primitives": [
        {
          "attributes": {
            "NORMAL": 99,
            "POSITION": 98,
            "TEXCOORD_0": 100
          },
          "mode": 4,
          "material": 1,
          "indices": 25
        }
      ]
    },
    {
      "name": "Object_24",
      "primitives": [
        {
          "attributes": {
            "NORMAL": 102,
            "POSITION": 101,
            "TEXCOORD_0": 103
          },
          "mode": 4,
          "material": 1,
          "indices": 26
        }
      ]
    },
    {
      "name": "Object_25",
      "primitives": [
        {
          "attributes": {
            "NORMAL": 105,
            "POSITION": 104,
            "TEXCOORD_0": 106
          },
          "mode": 4,
          "material": 1,
          "indices": 27
        }
      ]
    },
    {
      "name": "Object_26",
      "primitives": [
        {
          "attributes": {
            "NORMAL": 108,
            "POSITION": 107,
            "TEXCOORD_0": 109
          },
          "mode": 4,
          "material": 1,
          "indices": 28
        }
      ]
    },
    {
      "name": "Object_27",
      "primitives": [
        {
          "attributes": {
            "NORMAL": 111,
            "POSITION": 110,
            "TEXCOORD_0": 112
          },
          "mode": 4,
          "material": 1,
          "indices": 29
        }
      ]
    },
    {
      "name": "Object_28",
      "primitives": [
        {
          "attributes": {
            "NORMAL": 114,
            "POSITION": 113,
            "TEXCOORD_0": 115
          },
          "mode": 4,
          "material": 1,
          "indices": 30
        }
      ]
    },
    {
      "name": "Object_29",
      "primitives": [
        {
          "attributes": {
            "NORMAL": 117,
            "POSITION": 116,
            "TEXCOORD_0": 118
          },
          "mode": 4,
          "material": 1,
          "indices": 31
        }
      ]
    },
    {
      "name": "Object_30",
      "primitives": [
        {
          "attributes": {
            "NORMAL": 120,
            "POSITION": 119,
            "TEXCOORD_0": 121
          },
          "mode": 4,
          "material": 1,
          "indices": 32
        }
      ]
    },
    {
      "name": "Object_31",
      "primitives": [
        {
          "attributes": {
            "NORMAL": 123,
            "POSITION": 122,
            "TEXCOORD_0": 124
          },
          "mode": 4,
          "material": 1,
          "indices": 33
        }
      ]
    },
    {
      "name": "Object_32",
      "primitives": [
        {
          "attributes": {
            "NORMAL": 126,
            "POSITION": 125,
            "TEXCOORD_0": 127
          },
          "mode": 4,
          "material": 1,
          "indices": 34
        }
      ]
    }
  ],
  "nodes": [
    {
      "name": "Sketchfab_model",
      "rotation": [
        -0.7071067811865475,
        0,
        0,
        0.7071067811865476
      ],
      "children": [
        1
      ]
    },
    {
      "name": "root",
      "children": [
        2
      ]
    },
    {
      "name": "GLTF_SceneRootNode",
      "rotation": [
        0.7071067811865475,
        0,
        0,
        0.7071067811865476
      ],
      "children": [
        3,
        5,
        7,
        9,
        11,
        13,
        15,
        17,
        19,
        21,
        23,
        25,
        27,
        29,
        31,
        33,
        35,
        37,
        39,
        41,
        43,
        45,
        47,
        49,
        51,
        53,
        55,
        57,
        59,
        61,
        63,
        65
      ]
    },
    {
      "name": "Pawn_3_Dark_3",
      "translation": [
        -0.32206302881240845,
        0.014950678683817387,
        0.18678316473960876
      ],
      "children": [
        4
      ]
    },
    {
      "name": "Object_6",
      "mesh": 0
    },
    {
      "name": "Bishop_Dark_4",
      "translation": [
        -0.44862985610961914,
        0.014950680546462536,
        0.18498677015304565
      ],
      "children": [
        6
      ]
    },
    {
      "name": "Object_8",
      "mesh": 1
    },
    {
      "name": "Tower_2_Dark_5",
      "translation": [
        -0.4432280659675598,
        0.014950676821172237,
        -0.4478752613067627
      ],
      "children": [
        8
      ]
    },
    {
      "name": "Object_10",
      "mesh": 2
    },
    {
      "name": "Queen_Dark_6",
      "translation": [
        -0.44886717200279236,
        0.01495067123323679,
        0.0595235675573349
      ],
      "children": [
        10
      ]
    },
    {
      "name": "Object_12",
      "mesh": 3
    },
    {
      "name": "King_Dark_7",
      "translation": [
        -0.44774094223976135,
        0.014950678683817387,
        -0.06822097301483154
      ],
      "children": [
        12
      ]
    },
    {
      "name": "Object_14",
      "mesh": 4
    },
    {
      "name": "Knight_2_Dark_8",
      "translation": [
        -0.43691182136535645,
        0.014950678683817387,
        -0.3299054801464081
      ],
      "children": [
        14
      ]
    },
    {
      "name": "Object_16",
      "mesh": 5
    },
    {
      "name": "Knight_Dark_9",
      "translation": [
        -0.43691182136535645,
        0.014950678683817387,
        0.31639495491981506
      ],
      "children": [
        16
      ]
    },
    {
      "name": "Object_18",
      "mesh": 6
    },
    {
      "name": "Tower_Dark_10",
      "translation": [
        -0.4432280659675598,
        0.014950676821172237,
        0.446724534034729
      ],
      "children": [
        18
      ]
    },
    {
      "name": "Object_20",
      "mesh": 7
    },
    {
      "name": "Bishop_2_Dark_11",
      "translation": [
        -0.44862985610961914,
        0.014950680546462536,
        -0.1970355212688446
      ],
      "children": [
        20
      ]
    },
    {
      "name": "Object_22",
      "mesh": 8
    },
    {
      "name": "Pawn_2_Dark_12",
      "translation": [
        -0.32206302881240845,
        0.014950678683817387,
        0.3193683624267578
      ],
      "children": [
        22
      ]
    },
    {
      "name": "Object_24",
      "mesh": 9
    },
    {
      "name": "Pawn_4_Dark_13",
      "translation": [
        -0.32206302881240845,
        0.014950678683817387,
        0.06023670732975006
      ],
      "children": [
        24
      ]
    },
    {
      "name": "Object_26",
      "mesh": 10
    },
    {
      "name": "Pawn_5_Dark_14",
      "translation": [
        -0.32206302881240845,
        0.014950678683817387,
        -0.06650848686695099
      ],
      "children": [
        26
      ]
    },
    {
      "name": "Object_28",
      "mesh": 11
    },
    {
      "name": "Pawn_6_Dark_15",
      "translation": [
        -0.32206302881240845,
        0.014950678683817387,
        -0.19680359959602356
      ],
      "children": [
        28
      ]
    },
    {
      "name": "Object_30",
      "mesh": 12
    },
    {
      "name": "Pawn_7_Dark_16",
      "translation": [
        -0.32206302881240845,
        0.014950678683817387,
        -0.3256557583808899
      ],
      "children": [
        30
      ]
    },
    {
      "name": "Object_32",
      "mesh": 13
    },
    {
      "name": "Pawn_8_Dark_17",
      "translation": [
        -0.32206302881240845,
        0.014950678683817387,
        -0.45240098237991333
      ],
      "children": [
        32
      ]
    },
    {
      "name": "Object_34",
      "mesh": 14
    },
    {
      "name": "Pawn_Dark_18",
      "translation": [
        -0.32206302881240845,
        0.014950678683817387,
        0.440485417842865
      ],
      "children": [
        34
      ]
    },
    {
      "name": "Object_36",
      "mesh": 15
    },
    {
      "name": "Pawn_3_Light_19",
      "translation": [
        0.3256798982620239,
        0.014950678683817387,
        -0.19552099704742432
      ],
      "rotation": [
        0,
        0.9999999999999867,
        0,
        -1.629206849429444e-7
      ],
      "children": [
        36
      ]
    },
    {
      "name": "Object_38",
      "mesh": 16
    },
    {
      "name": "Bishop_Light_20",
      "translation": [
        0.4522467255592346,
        0.014950680546462536,
        -0.1937246024608612
      ],
      "rotation": [
        0,
        0.9999999999999867,
        0,
        -1.629206849429444e-7
      ],
      "children": [
        38
      ]
    },
    {
      "name": "Object_40",
      "mesh": 17
    },
    {
      "name": "Tower_2_Light_21",
      "translation": [
        0.4468449652194977,
        0.014950676821172237,
        0.43913745880126953
      ],
      "rotation": [
        0,
        0.9999999999999867,
        0,
        -1.629206849429444e-7
      ],
      "children": [
        40
      ]
    },
    {
      "name": "Object_42",
      "mesh": 18
    },
    {
      "name": "Queen_Light_22",
      "translation": [
        0.45248404145240784,
        0.01495067123323679,
        -0.06826139986515045
      ],
      "rotation": [
        0,
        0.9999999999999867,
        0,
        -1.629206849429444e-7
      ],
      "children": [
        42
      ]
    },
    {
      "name": "Object_44",
      "mesh": 19
    },
    {
      "name": "King_Light_23",
      "translation": [
        0.45135781168937683,
        0.014950678683817387,
        0.05948314070701599
      ],
      "rotation": [
        0,
        0.9999999999999867,
        0,
        -1.629206849429444e-7
      ],
      "children": [
        44
      ]
    },
    {
      "name": "Object_46",
      "mesh": 20
    },
    {
      "name": "Knight_2_Light_24",
      "translation": [
        0.4405287206172943,
        0.014950678683817387,
        0.3211676776409149
      ],
      "rotation": [
        0,
        0.9999999999999867,
        0,
        -1.629206849429444e-7
      ],
      "children": [
        46
      ]
    },
    {
      "name": "Object_48",
      "mesh": 21
    },
    {
      "name": "Knight_Light_25",
      "translation": [
        0.44052866101264954,
        0.014950678683817387,
        -0.3251327574253082
      ],
      "rotation": [
        0,
        0.9999999999999867,
        0,
        -1.629206849429444e-7
      ],
      "children": [
        48
      ]
    },
    {
      "name": "Object_50",
      "mesh": 22
    },
    {
      "name": "Tower_Light_26",
      "translation": [
        0.4468449056148529,
        0.014950676821172237,
        -0.45546233654022217
      ],
      "rotation": [
        0,
        0.9999999999999867,
        0,
        -1.629206849429444e-7
      ],
      "children": [
        50
      ]
    },
    {
      "name": "Object_52",
      "mesh": 23
    },
    {
      "name": "Bishop_2_Light_27",
      "translation": [
        0.4522467255592346,
        0.014950680546462536,
        0.18829768896102905
      ],
      "rotation": [
        0,
        0.9999999999999867,
        0,
        -1.629206849429444e-7
      ],
      "children": [
        52
      ]
    },
    {
      "name": "Object_54",
      "mesh": 24
    },
    {
      "name": "Pawn_2_Light_28",
      "translation": [
        0.32567986845970154,
        0.014950678683817387,
        -0.328106164932251
      ],
      "rotation": [
        0,
        0.9999999999999867,
        0,
        -1.629206849429444e-7
      ],
      "children": [
        54
      ]
    },
    {
      "name": "Object_56",
      "mesh": 25
    },
    {
      "name": "Pawn_4_Light_29",
      "translation": [
        0.3256798982620239,
        0.014950678683817387,
        -0.06897452473640442
      ],
      "rotation": [
        0,
        0.9999999999999867,
        0,
        -1.629206849429444e-7
      ],
      "children": [
        56
      ]
    },
    {
      "name": "Object_58",
      "mesh": 26
    },
    {
      "name": "Pawn_5_Light_30",
      "translation": [
        0.3256798982620239,
        0.014950678683817387,
        0.05777066946029663
      ],
      "rotation": [
        0,
        0.9999999999999867,
        0,
        -1.629206849429444e-7
      ],
      "children": [
        58
      ]
    },
    {
      "name": "Object_60",
      "mesh": 27
    },
    {
      "name": "Pawn_6_Light_31",
      "translation": [
        0.3256799280643463,
        0.014950678683817387,
        0.188065767288208
      ],
      "rotation": [
        0,
        0.9999999999999867,
        0,
        -1.629206849429444e-7
      ],
      "children": [
        60
      ]
    },
    {
      "name": "Object_62",
      "mesh": 28
    },
    {
      "name": "Pawn_7_Light_32",
      "translation": [
        0.3256799280643463,
        0.014950678683817387,
        0.31691795587539673
      ],
      "rotation": [
        0,
        0.9999999999999867,
        0,
        -1.629206849429444e-7
      ],
      "children": [
        62
      ]
    },
    {
      "name": "Object_64",
      "mesh": 29
    },
    {
      "name": "Pawn_8_Light_33",
      "translation": [
        0.3256799280643463,
        0.014950678683817387,
        0.44366317987442017
      ],
      "rotation": [
        0,
        0.9999999999999867,
        0,
        -1.629206849429444e-7
      ],
      "children": [
        64
      ]
    },
    {
      "name": "Object_66",
      "mesh": 30
    },
    {
      "name": "Pawn_Light_34",
      "translation": [
        0.32567986845970154,
        0.014950678683817387,
        -0.44922322034835815
      ],
      "rotation": [
        0,
        0.9999999999999867,
        0,
        -1.629206849429444e-7
      ],
      "children": [
        66
      ]
    },
    {
      "name": "Object_68",
      "mesh": 31
    }
  ],
  "scenes": [
    {
      "name": "Sketchfab_Scene",
      "nodes": [
        0
      ]
    }
  ],
  "scene": 0
}